<svg width="32" height="19" viewBox="0 0 32 19" fill="none" xmlns="http://www.w3.org/2000/svg">
<path d="M30.4999 1.89935C30.7166 1.19935 30.4999 0.666016 29.4666 0.666016H26.0999C25.2333 0.666016 24.8499 1.11602 24.6333 1.61602C24.6333 1.61602 22.9166 5.79935 20.4833 8.53268C19.6833 9.31602 19.3333 9.56602 18.8999 9.56602C18.6833 9.56602 18.3333 9.31602 18.3333 8.59935V1.89935C18.3333 1.04935 18.1333 0.666016 17.4166 0.666016H12.0999C11.5666 0.666016 11.2499 1.06602 11.2499 1.44935C11.2499 2.24935 12.4999 2.44935 12.5833 4.73268V9.69935C12.5833 10.7993 12.3833 10.9993 11.9666 10.9993C10.8333 10.9993 8.03325 6.78268 6.38325 1.98268C6.04992 1.04935 5.73325 0.666016 4.86659 0.666016H1.48325C0.533252 0.666016 0.333252 1.11602 0.333252 1.61602C0.333252 2.51602 1.48325 6.94935 5.66659 12.816C8.44992 16.8327 12.3833 18.9993 15.9666 18.9993C18.1166 18.9993 18.3833 18.516 18.3833 17.6827V14.6494C18.3833 13.6994 18.5833 13.4993 19.2666 13.4993C19.7666 13.4993 20.6166 13.7493 22.6166 15.666C24.9166 17.966 25.2833 18.9993 26.5833 18.9993H29.9499C30.9166 18.9993 31.3999 18.516 31.1333 17.566C30.8333 16.616 29.7333 15.2327 28.2833 13.5993C27.4999 12.6827 26.3166 11.6827 25.9499 11.166C25.4499 10.5327 25.5999 10.2493 25.9499 9.66602C25.9499 9.66602 30.0666 3.88268 30.4999 1.89935Z" fill="#FCFCFC"/>
</svg>
